<?xml version="1.0" standalone="no"?><!DOCTYPE svg PUBLIC "-//W3C//DTD SVG 1.1//EN" "http://www.w3.org/Graphics/SVG/1.1/DTD/svg11.dtd"><svg t="1738041681495" class="icon" viewBox="0 0 1024 1024" version="1.1" xmlns="http://www.w3.org/2000/svg" p-id="1120" xmlns:xlink="http://www.w3.org/1999/xlink" width="16" height="16"><path d="M823.8592 404.992a316.8768 316.8768 0 1 0-472.576 275.968v109.2608a44.2368 44.2368 0 0 0 44.288 44.3392h222.8224a44.2368 44.2368 0 0 0 44.288-44.2368V680.96a316.7744 316.7744 0 0 0 161.1776-275.968z" fill="#FAC573" p-id="1121"></path><path d="M523.1616 88.5248a423.6288 423.6288 0 0 1 156.7232 110.6432c102.656 116.5312 102.4 293.2736-2.2528 407.9104a413.6448 413.6448 0 0 1-45.0048 42.24 43.1104 43.1104 0 0 0-16.128 33.3824v87.7056a19.6096 19.6096 0 0 1-16.9984 19.7632 75.776 75.776 0 0 1-9.4208 0.5632H407.4496c-26.5728 0-40.1408 0-46.08-13.0048 3.9424 29.3888-30.72 53.1456 74.6496 53.1456h168.0896a38.8096 38.8096 0 0 1-6.144 3.584h20.48a44.4928 44.4928 0 0 0 17.5616-3.584h3.9936l-0.3584-1.7408a44.1856 44.1856 0 0 0 23.1936-38.912V680.96a316.8768 316.8768 0 0 0-139.6736-592.4352z" fill="#EF981A" p-id="1122"></path><path d="M506.9824 404.992m-109.5168 0a109.5168 109.5168 0 1 0 219.0336 0 109.5168 109.5168 0 1 0-219.0336 0Z" fill="#F55369" p-id="1123"></path><path d="M500.992 509.7984c13.6704 1.0752 27.0848 1.6384 40.0384 1.7408a109.4656 109.4656 0 0 0-46.08-214.016l14.2848 8.3456s63.744 39.7312 63.744 95.5904-40.1408 96.6144-71.9872 108.3392z" fill="#D6283F" p-id="1124"></path><path d="M637.0304 404.992A130.048 130.048 0 1 0 486.4 533.3504v180.2752a20.48 20.48 0 0 0 40.96 0v-180.2752a130.2016 130.2016 0 0 0 109.6704-128.3584zM506.88 494.0288a89.088 89.088 0 1 1 89.088-89.0368A89.1392 89.1392 0 0 1 506.88 494.0288z" fill="#211D38" p-id="1125"></path><path d="M618.3936 855.04H395.5712a64.8192 64.8192 0 0 1-64.768-64.7168v-97.6384a336.1792 336.1792 0 0 1-160.768-304.9472c8.5504-171.3664 149.504-311.8592 320.9728-319.744a337.3056 337.3056 0 0 1 192.1536 624.64v97.5872A64.8192 64.8192 0 0 1 618.3936 855.04zM507.136 108.544c-4.7616 0-9.472 0-14.2336 0.3584-150.6304 6.9632-274.432 130.3552-281.9584 280.8832a295.4752 295.4752 0 0 0 150.4256 273.3568 20.48 20.48 0 0 1 10.24 17.8176v109.2608a23.808 23.808 0 0 0 23.9616 23.8592h222.8224a23.808 23.808 0 0 0 23.808-23.7568V680.96a20.48 20.48 0 0 1 10.24-17.8176 296.96 296.96 0 0 0 150.9888-258.1504 296.5504 296.5504 0 0 0-296.2944-296.448z" fill="#211D38" p-id="1126"></path><path d="M237.3632 489.472A12.8 12.8 0 0 1 225.28 480.1536a294.5536 294.5536 0 0 1-10.752-94.5152 289.4336 289.4336 0 0 1 7.8336-53.9648c1.6384-6.8608 3.584-13.7216 5.7344-20.48a12.8 12.8 0 0 1 24.32 7.8336 255.488 255.488 0 0 0-5.12 18.5856 264.6528 264.6528 0 0 0-7.168 49.2032 270.0288 270.0288 0 0 0 9.6256 86.3232 12.8 12.8 0 0 1-9.1136 15.872 13.568 13.568 0 0 1-3.2768 0.4608zM262.1952 277.504A12.8512 12.8512 0 0 1 250.88 258.4576a295.68 295.68 0 0 1 72.8064-86.272 12.8 12.8 0 0 1 16.0768 19.9168 268.9536 268.9536 0 0 0-66.56 78.7968 12.8512 12.8512 0 0 1-11.008 6.6048zM385.2288 163.84a12.8 12.8 0 0 1-5.632-24.2688 296.96 296.96 0 0 1 44.032-17.3568 12.8 12.8 0 0 1 7.3728 24.5248 260.5056 260.5056 0 0 0-40.1408 15.8208 12.9024 12.9024 0 0 1-5.632 1.28z" fill="#FFFFFF" p-id="1127"></path><path d="M652.9024 952.9344h-291.84a20.48 20.48 0 1 1 0-40.96h291.84a20.48 20.48 0 1 1 0 40.96z" fill="#211D38" p-id="1128"></path><path d="M436.0192 406.2208h-1.8432a12.7488 12.7488 0 0 1-10.8032-14.5408 80.896 80.896 0 0 1 21.2992-45.4144A12.8 12.8 0 1 1 463.7184 363.52a56.8832 56.8832 0 0 0-15.0528 32.0512 12.7488 12.7488 0 0 1-12.6464 10.6496z" fill="#FFFFFF" p-id="1129"></path><path d="M217.4464 745.2672a23.04 23.04 0 0 0-30.464-11.5712l-15.36 6.8608-6.912-15.36a23.04 23.04 0 0 0-41.8304 18.7904l6.912 15.36-15.36 6.912a23.04 23.04 0 1 0 18.688 42.0864l15.36-6.8608 6.912 15.36a23.04 23.04 0 0 0 42.0352-18.8416l-6.912-15.36 15.36-6.912a23.0912 23.0912 0 0 0 11.5712-30.464z" fill="#F55369" p-id="1130"></path><path d="M835.9936 777.472m-33.3312 0a33.3312 33.3312 0 1 0 66.6624 0 33.3312 33.3312 0 1 0-66.6624 0Z" fill="#E2E5F1" p-id="1131"></path></svg>