<?xml version="1.0" standalone="no"?><!DOCTYPE svg PUBLIC "-//W3C//DTD SVG 1.1//EN" "http://www.w3.org/Graphics/SVG/1.1/DTD/svg11.dtd"><svg t="1740298197313" class="icon" viewBox="0 0 1024 1024" version="1.1" xmlns="http://www.w3.org/2000/svg" p-id="8077" id="mx_n_1740298197314" xmlns:xlink="http://www.w3.org/1999/xlink" width="16" height="16"><path d="M768 0c55.076571 0 103.643429 45.348571 109.202286 99.474286L877.714286 109.714286l0.073143 362.788571A303.689143 303.689143 0 0 0 804.571429 427.227429V109.714286c0-19.529143-11.556571-33.206857-29.549715-36.059429L768 73.142857h-658.285714c-19.529143 0-33.206857 11.556571-36.059429 29.549714L73.142857 109.714286v804.571428c0 19.529143 11.556571 33.206857 29.549714 36.059429L109.714286 950.857143h144.091428c15.140571 27.574857 34.816 52.297143 58.075429 73.216L109.714286 1024c-55.076571 0-103.643429-45.348571-109.202286-99.474286L0 914.285714v-804.571428C0 54.637714 45.348571 6.070857 99.474286 0.512L109.714286 0h658.285714zM683.885714 475.428571c109.714286 0 201.728 76.726857 225.28 179.346286l2.486857 12.946286 1.170286 8.484571 6.802286 2.925715a179.931429 179.931429 0 0 1 102.619428 138.24l1.389715 13.312 0.365714 11.922285a180.224 180.224 0 0 1-168.228571 179.638857l-11.849143 0.365715h-345.234286a206.189714 206.189714 0 0 1-49.444571-406.089143l12.434285-2.706286 11.483429-1.755428 2.779428-6.070858a232.740571 232.740571 0 0 1 179.931429-128.804571l14.628571-1.389714 13.458286-0.365715z m0 73.142858a158.793143 158.793143 0 0 0-153.965714 123.172571 16.310857 16.310857 0 0 1-17.554286 12.653714A133.046857 133.046857 0 0 0 365.714286 816.566857a133.12 133.12 0 0 0 122.002285 132.461714l10.971429 0.438858h345.234286l10.24-0.438858A107.081143 107.081143 0 0 0 950.857143 842.605714c0-54.637714-40.886857-100.352-95.085714-106.276571a16.237714 16.237714 0 0 1-14.482286-17.408A157.988571 157.988571 0 0 0 683.885714 548.571429zM268.946286 658.212571a277.942857 277.942857 0 0 0-34.157715 67.291429A34.742857 34.742857 0 0 1 219.428571 694.857143c0-19.529143 11.556571-33.206857 29.549715-36.059429L256 658.285714l12.873143-0.073143z m270.994285-219.428571a306.907429 306.907429 0 0 0-89.6 73.142857L256 512c-21.942857 0-36.571429-14.628571-36.571429-36.571429 0-19.529143 11.556571-33.206857 29.549715-36.059428L256 438.857143h283.794286zM621.714286 219.428571c21.942857 0 36.571429 14.628571 36.571428 36.571429 0 19.529143-11.556571 33.206857-29.549714 36.059429L621.714286 292.571429h-365.714286c-21.942857 0-36.571429-14.628571-36.571429-36.571429 0-19.529143 11.556571-33.206857 29.549715-36.059429L256 219.428571h365.714286z" fill="#000000" p-id="8078"></path></svg>